<?xml version="1.0" encoding="UTF-8"?>
<svg version="1.1" xmlns="http://www.w3.org/2000/svg" width="1024" height="1024">
<path d="M0 0 C337.92 0 675.84 0 1024 0 C1024 337.92 1024 675.84 1024 1024 C686.08 1024 348.16 1024 0 1024 C0 686.08 0 348.16 0 0 Z " fill="#FEFEFE" transform="translate(0,0)"/>
<path d="M0 0 C0.78568359 0.00757324 1.57136719 0.01514648 2.38085938 0.02294922 C9.20190911 0.21428497 15.04096633 1.53327457 21.25 4.4375 C22.10851562 4.83839844 22.96703125 5.23929688 23.8515625 5.65234375 C34.6343288 11.41094185 41.67650526 21.76592165 48.89453125 31.33203125 C50.90948972 33.98856853 52.96436462 36.59672067 55.0625 39.1875 C58.67136766 43.66395403 62.14848221 48.23330479 65.625 52.8125 C69.40030421 57.77997711 73.22080812 62.67334152 77.25 67.4375 C81.76424959 72.77583715 85.99489729 78.29840089 90.21606445 83.87011719 C94.55514652 89.57759586 99.03977456 95.15046926 103.58300781 100.69604492 C106.89531908 104.74715609 110.14015391 108.83845522 113.3125 113 C116.83284562 117.61619514 120.42033813 122.16696911 124.0625 126.6875 C128.35672048 132.02039974 132.5492456 137.42031081 136.6875 142.875 C141.52920128 149.25321961 146.50772278 155.49973845 151.58129883 161.69458008 C155.7553327 166.80025578 159.79498441 171.99318926 163.796875 177.234375 C169.68368629 184.94126321 175.7154232 192.53762938 181.78735352 200.09912109 C183.79626832 202.60294864 185.79718485 205.11311497 187.79785156 207.62353516 C189.20809755 209.38515716 190.63098093 211.13597161 192.0546875 212.88671875 C201.56454864 224.72379263 206.2826402 235.15824969 205.25 250.4375 C203.21187349 262.16536358 196.75397701 271.46254738 187.25 278.4375 C177.9323605 284.19840614 166.96298515 284.88428424 156.25 283.4375 C142.08180231 279.59798842 133.95021038 268.32832672 125.57958984 257.19042969 C123.34284369 254.24150618 121.04474999 251.34135777 118.75 248.4375 C115.22022809 243.95990179 111.71840648 239.46279402 108.25 234.9375 C104.41758201 229.93859545 100.54190065 224.97574831 96.64331055 220.02832031 C92.76123846 215.09823121 88.91007039 210.14454278 85.0625 205.1875 C81.46849392 200.55765637 77.86983346 195.93518932 74.1875 191.375 C70.18415116 186.40268775 66.3245277 181.32377699 62.45556641 176.24682617 C57.8238997 170.17382732 53.14574413 164.13822684 48.44677734 158.1171875 C43.34902131 151.58120758 38.30438614 145.00820198 33.25 138.4375 C32.92 209.0575 32.59 279.6775 32.25 352.4375 C7.5 352.4375 -17.25 352.4375 -42.75 352.4375 C-42.81615154 312.47857519 -42.87153822 272.51970206 -42.90319599 232.56073815 C-42.90694805 227.8419243 -42.91083103 223.12311056 -42.91479492 218.40429688 C-42.91558185 217.46487633 -42.91636878 216.52545578 -42.91717956 215.55756794 C-42.93022918 200.35180202 -42.95388058 185.14607016 -42.98145839 169.94032444 C-43.00952493 154.33480703 -43.02617891 138.72930744 -43.03226548 123.12376583 C-43.03637933 113.4963355 -43.04936701 103.86900148 -43.0737494 94.2416008 C-43.089622 87.63739971 -43.0943969 81.03324831 -43.09050413 74.42902954 C-43.08858496 70.62022349 -43.09150199 66.81158559 -43.10761642 63.00280952 C-43.12498203 58.86798479 -43.11894879 54.73351636 -43.11076355 50.59866333 C-43.11950207 49.40214303 -43.1282406 48.20562273 -43.13724393 46.97284424 C-43.06909785 34.22722449 -39.37595233 22.12896782 -30.5 12.625 C-21.93214756 4.7380365 -11.65798966 -0.15897259 0 0 Z " fill="#3263AA" transform="translate(344.75,248.5625)"/>
<path d="M0 0 C1.43665555 1.03531228 2.85462061 2.09719405 4.25 3.1875 C4.86617187 3.66574219 5.48234375 4.14398438 6.1171875 4.63671875 C12.8952016 10.61643341 17.83293318 20.30577812 19.25 29.1875 C19.33672759 31.03603063 19.37378131 32.88726439 19.37304783 34.73782825 C19.37503888 35.8485365 19.37702993 36.95924474 19.37908131 38.10361081 C19.37616847 39.31858627 19.37325563 40.53356172 19.37025452 41.78535461 C19.37153615 43.72736662 19.37153615 43.72736662 19.37284368 45.70861119 C19.37507986 49.30022295 19.37107934 52.8918049 19.36606562 56.48341286 C19.36174874 60.35725346 19.36320843 64.23109237 19.3639679 68.10493469 C19.36449234 74.81598115 19.36135379 81.52701789 19.35573006 88.2380619 C19.34760437 97.94111487 19.34499874 107.64416313 19.34374207 117.34721913 C19.34155323 133.08963638 19.3348977 148.83204845 19.32543945 164.57446289 C19.31626099 179.86710586 19.30918228 195.15974741 19.30493164 210.45239258 C19.30466892 211.39496956 19.30440619 212.33754655 19.30413551 213.30868647 C19.30283048 218.03729981 19.30156677 222.76591315 19.30032361 227.49452651 C19.28995624 266.72552227 19.27152074 305.95650846 19.25 345.1875 C-5.5 345.1875 -30.25 345.1875 -55.75 345.1875 C-56.08 274.5675 -56.41 203.9475 -56.75 131.1875 C-60.05 135.4775 -63.35 139.7675 -66.75 144.1875 C-69.08063803 147.1896778 -71.4130549 150.19025654 -73.75 153.1875 C-80.4759044 161.82600108 -87.18188011 170.47924008 -93.796875 179.203125 C-99.77651229 187.07720244 -105.85083105 194.84682763 -112.13134766 202.48364258 C-116.29494202 207.56516961 -120.21629727 212.78611883 -124.04296875 218.125 C-124.60628906 218.805625 -125.16960938 219.48625 -125.75 220.1875 C-126.41 220.1875 -127.07 220.1875 -127.75 220.1875 C-128.02972656 219.30449219 -128.30945313 218.42148437 -128.59765625 217.51171875 C-133.1508281 203.88148404 -140.92141011 193.37830815 -149.75 182.1875 C-150.65013802 181.03937477 -151.54987478 179.89093483 -152.44921875 178.7421875 C-153.12597656 177.87920044 -153.12597656 177.87920044 -153.81640625 176.9987793 C-154.72740133 175.83683882 -155.63756372 174.67424499 -156.546875 173.51098633 C-158.96993167 170.41960437 -161.42373242 167.35994474 -163.92578125 164.33203125 C-164.69740601 163.38541626 -164.69740601 163.38541626 -165.48461914 162.41967773 C-166.47474226 161.20623056 -167.47487931 160.00086765 -168.48608398 158.80493164 C-169.828125 157.1484375 -169.828125 157.1484375 -171.75 154.1875 C-171.40067858 150.89743724 -170.00206479 148.9030698 -167.9765625 146.3515625 C-167.40454102 145.62412842 -166.83251953 144.89669434 -166.24316406 144.1472168 C-165.62666992 143.37676025 -165.01017578 142.60630371 -164.375 141.8125 C-163.74303711 141.01175049 -163.11107422 140.21100098 -162.45996094 139.38598633 C-161.17102875 137.75369638 -159.87936728 136.12355783 -158.58496094 134.49560547 C-156.04359366 131.29894684 -153.52189565 128.08702139 -151 124.875 C-150.33194336 124.02711914 -150.33194336 124.02711914 -149.65039062 123.16210938 C-146.69168426 119.40398749 -143.77675169 115.61467473 -140.875 111.8125 C-137.0744609 106.83685959 -133.15286395 101.97002875 -129.1875 97.125 C-124.64234689 91.56922802 -120.25655603 85.94087858 -115.984375 80.171875 C-112.13572252 75.03136715 -108.1386061 70.00767123 -104.15722656 64.96972656 C-102.30782966 62.6274994 -100.46418784 60.28078195 -98.62109375 57.93359375 C-97.24548288 56.18174743 -95.86883429 54.43071982 -94.4921875 52.6796875 C-92.68125825 50.37521898 -90.87425437 48.06775413 -89.0703125 45.7578125 C-83.56388197 38.71481993 -77.97454472 31.74627607 -72.32275391 24.81933594 C-69.42488984 21.2636209 -66.55581803 17.69176462 -63.75 14.0625 C-63.21890625 13.381875 -62.6878125 12.70125 -62.140625 12 C-60.89588077 10.37763674 -59.69482112 8.72197378 -58.5 7.0625 C-54.45384942 2.83243349 -49.8279581 0.04861418 -44.75 -2.8125 C-44.00105469 -3.25207031 -43.25210938 -3.69164062 -42.48046875 -4.14453125 C-29.11260406 -10.76993529 -12.11611813 -7.55737803 0 0 Z " fill="#2996CB" transform="translate(700.75,255.8125)"/>
<path d="M0 0 C0.66 0 1.32 0 2 0 C2.23074219 0.96679688 2.46148437 1.93359375 2.69921875 2.9296875 C7.48458216 22.33616127 18.22536283 35.32061252 31.69140625 49.59863281 C33.95894262 52.02692736 36.12639731 54.53944677 38.30078125 57.05078125 C41.81406038 61.08095661 45.41746334 65.03146612 49 69 C50.50028679 70.66640851 52.00028872 72.33307353 53.5 74 C55.76085598 76.51249908 58.02216012 79.02458448 60.28515625 81.53515625 C61.03667969 82.36917969 61.78820312 83.20320313 62.5625 84.0625 C63.22378906 84.79597656 63.88507813 85.52945313 64.56640625 86.28515625 C65.36949219 87.18105469 66.17257812 88.07695312 67 89 C67.64538979 89.49422172 68.29077957 89.98844343 68.95572662 90.49764156 C72.88841086 93.92224208 75.10883519 97.08540207 75.72842407 102.28634834 C76.09338284 107.83599848 75.99023943 113.38417599 75.90820312 118.94165039 C75.90594479 121.08088089 75.90721661 123.22011758 75.91174316 125.35934448 C75.91403403 131.15049597 75.86707416 136.94031588 75.8111515 142.73115849 C75.76106543 148.78891918 75.75643569 154.84671203 75.74694824 160.90464783 C75.72210547 172.36879043 75.65648587 183.83232109 75.57615232 195.29619449 C75.486664 208.35048177 75.44272969 221.40479861 75.40258884 234.45931637 C75.31901816 261.3066281 75.17233557 288.1531012 75 315 C50.25 315 25.5 315 0 315 C0 211.05 0 107.1 0 0 Z " fill="#3C3F8F" transform="translate(302,286)"/>
<path d="M0 0 C2.65410607 1.10126465 4.96139849 2.21545225 7.4375 3.625 C8.50049316 4.21039551 8.50049316 4.21039551 9.58496094 4.80761719 C12.06759422 6.18638977 14.53375344 7.59213352 17 9 C18.00627441 9.56750977 19.01254883 10.13501953 20.04931641 10.71972656 C23.29015074 12.55071196 26.52166211 14.39707898 29.75 16.25 C30.78568115 16.83990723 31.8213623 17.42981445 32.88842773 18.03759766 C44.35291045 24.7058209 44.35291045 24.7058209 47 30 C47.12101308 31.71874895 47.17999483 33.44203092 47.20874023 35.16479492 C47.22803085 36.24319138 47.24732147 37.32158783 47.26719666 38.43266296 C47.32488556 43.37670636 47.37423053 48.32060235 47.4050293 53.26489258 C47.42660345 55.8711472 47.46069866 58.4773295 47.50756836 61.08325195 C47.57455583 64.84098682 47.60203037 68.59722103 47.62109375 72.35546875 C47.64892441 73.5161235 47.67675507 74.67677826 47.70542908 75.87260437 C47.69220382 81.08813093 47.66934677 84.93836588 44.28369141 89.08740234 C41.70493368 91.58092725 39.00610249 93.54238647 35.83984375 95.24609375 C34.88706543 95.76969482 33.93428711 96.2932959 32.95263672 96.83276367 C31.9576416 97.36232666 30.96264648 97.89188965 29.9375 98.4375 C27.87521909 99.56573099 25.81401389 100.69593057 23.75390625 101.828125 C22.76406738 102.36888672 21.77422852 102.90964844 20.75439453 103.46679688 C16.23576107 105.98204401 11.87834674 108.72576996 7.5234375 111.51171875 C2.55608407 114.44138076 -1.16632772 115.6642898 -7 115 C-10.29535096 113.66009927 -13.3094159 111.92135715 -16.375 110.125 C-17.24334473 109.6312085 -18.11168945 109.13741699 -19.00634766 108.62866211 C-21.68044329 107.10168581 -24.34106005 105.55318836 -27 104 C-28.62487338 103.06097878 -30.24986801 102.12216732 -31.875 101.18359375 C-51.79777505 89.60667486 -51.79777505 89.60667486 -54 83 C-54.10714929 81.32945975 -54.15867307 79.65507386 -54.17700195 77.98120117 C-54.18983719 76.95971481 -54.20267242 75.93822845 -54.21589661 74.88578796 C-54.22328354 73.78265762 -54.23067047 72.67952728 -54.23828125 71.54296875 C-54.246353 70.4072493 -54.25442474 69.27152985 -54.26274109 68.10139465 C-54.27657793 65.69643682 -54.28730187 63.29145939 -54.29516602 60.88647461 C-54.31238355 57.21234887 -54.35627539 53.53912178 -54.40039062 49.86523438 C-54.41051723 47.52865245 -54.41903343 45.19206288 -54.42578125 42.85546875 C-54.44328934 41.7584111 -54.46079742 40.66135345 -54.47883606 39.53105164 C-54.46134241 33.36645135 -54.16862975 29.66778917 -50 25 C-47.6796875 23.19140625 -47.6796875 23.19140625 -44.875 21.5625 C-43.18697266 20.57056641 -43.18697266 20.57056641 -41.46484375 19.55859375 C-40.79179199 19.17300293 -40.11874023 18.78741211 -39.42529297 18.39013672 C-36.44361547 16.68108984 -33.47426853 14.95129228 -30.50390625 13.22265625 C-25.88144924 10.53791339 -21.25478544 7.86062287 -16.62109375 5.1953125 C-15.6355249 4.62828613 -14.64995605 4.06125977 -13.63452148 3.47705078 C-8.67876465 0.69859384 -5.85110392 -0.55373223 0 0 Z " fill="#F6872F" transform="translate(669,680)"/>
<path d="M0 0 C8.36854909 3.58033871 16.27558863 8.29280303 24.11132812 12.90405273 C25.88774749 13.94496956 27.67406647 14.96738962 29.4609375 15.99023438 C30.61783926 16.6681598 31.77411279 17.34715872 32.9296875 18.02734375 C33.95304199 18.62281006 34.97639648 19.21827637 36.03076172 19.83178711 C40.5513468 23.13283267 44.38932771 25.93973565 45.53320312 31.67204285 C45.74391156 34.9048291 45.75323087 38.08125698 45.69140625 41.3203125 C45.69003159 42.49713593 45.68865692 43.67395935 45.6872406 44.88644409 C45.67820344 47.36595779 45.6546349 49.84545598 45.61743164 52.32470703 C45.56258053 56.11942845 45.55590353 59.91195426 45.55664062 63.70703125 C45.54189596 66.11981065 45.52441136 68.53257518 45.50390625 70.9453125 C45.49889854 72.64543991 45.49889854 72.64543991 45.49378967 74.37991333 C45.46508034 75.96713699 45.46508034 75.96713699 45.43579102 77.58642578 C45.42435562 78.51351349 45.41292023 79.4406012 45.40113831 80.39578247 C44.82018708 84.16735789 43.16379661 86.86295312 40.44921875 89.51513672 C34.53648507 93.843166 28.24707776 97.47551282 21.87304688 101.06884766 C20.00053091 102.12470064 18.13276405 103.18857901 16.265625 104.25390625 C12.85720985 106.19375147 9.43153718 108.10131593 6 110 C4.78957031 110.68400879 4.78957031 110.68400879 3.5546875 111.38183594 C-0.46014928 113.55145068 -3.43773966 114.67589042 -8 114 C-10.69140625 112.890625 -10.69140625 112.890625 -13.5625 111.25 C-14.68269531 110.61707031 -15.80289063 109.98414063 -16.95703125 109.33203125 C-17.58689941 108.96803223 -18.21676758 108.6040332 -18.86572266 108.22900391 C-21.30071243 106.82683752 -23.74940875 105.45032192 -26.19921875 104.07421875 C-28.04996149 103.02949981 -29.90022128 101.98392488 -31.75 100.9375 C-32.62470947 100.4434668 -33.49941895 99.94943359 -34.40063477 99.44042969 C-38.60908133 97.03696649 -42.78655151 94.58195569 -46.890625 92.00390625 C-47.93524902 91.3533728 -47.93524902 91.3533728 -49.00097656 90.68969727 C-52.48588482 87.74403898 -54.69332444 85.06168391 -55.38269043 80.42729187 C-55.56315744 77.22748943 -55.60674037 74.05257394 -55.6015625 70.84765625 C-55.61013275 69.67416122 -55.618703 68.5006662 -55.62753296 67.29161072 C-55.63899783 64.81463192 -55.64003603 62.3375858 -55.63134766 59.8605957 C-55.6250266 56.07841777 -55.67196661 52.29936947 -55.72265625 48.51757812 C-55.72720257 46.10677477 -55.72860907 43.69596302 -55.7265625 41.28515625 C-55.74498199 40.15892349 -55.76340149 39.03269073 -55.78237915 37.87232971 C-55.72176908 32.70913065 -55.59774568 29.00554907 -52.2409668 24.91699219 C-49.83967345 22.57642095 -47.37277364 20.64950521 -44.41796875 19.04296875 C-43.57669434 18.5747168 -42.73541992 18.10646484 -41.86865234 17.62402344 C-40.98387207 17.1499707 -40.0990918 16.67591797 -39.1875 16.1875 C-37.30756065 15.15683006 -35.42866824 14.12424839 -33.55078125 13.08984375 C-32.6170166 12.5779248 -31.68325195 12.06600586 -30.72119141 11.53857422 C-28.17138285 10.09690066 -25.69786337 8.58155764 -23.23046875 7.00390625 C-8.86373916 -2.15251051 -8.86373916 -2.15251051 0 0 Z " fill="#366DB3" transform="translate(355,681)"/>
<path d="M0 0 C4.8010563 1.87747083 9.34295691 4.15544451 13.91601562 6.52148438 C16.92705446 8.0546728 19.70849574 9.26183999 23 10 C23.04998673 14.64069099 23.0859928 19.28122019 23.10986328 23.92211914 C23.11982989 25.49604019 23.1334081 27.06994318 23.15087891 28.64379883 C23.37579205 49.44826429 19.53386308 67.84543617 4.9375 83.6875 C-9.02889257 96.96390043 -25.98995228 101.10899863 -44.65234375 101.17578125 C-47.14519081 101.19897144 -49.63802939 101.22308844 -52.13085938 101.24804688 C-56.03903975 101.28318045 -59.94690531 101.31253224 -63.85522461 101.32592773 C-67.64214511 101.34142738 -71.42816281 101.38163786 -75.21484375 101.42578125 C-76.37652573 101.42387283 -77.5382077 101.42196442 -78.73509216 101.41999817 C-85.64092004 101.52372066 -90.09125625 102.37699247 -96 106 C-96.886875 106.53625 -97.77375 107.0725 -98.6875 107.625 C-102.82082374 111.87003519 -105.14014203 117.42042609 -107 123 C-107.6909375 122.67386719 -108.381875 122.34773437 -109.09375 122.01171875 C-112.40619018 120.85859777 -115.00067094 120.76753199 -118.5 120.8125 C-119.6034375 120.81894531 -120.706875 120.82539062 -121.84375 120.83203125 C-124.67226083 120.98255844 -127.24692555 121.35795838 -130 122 C-129.07994397 109.57924361 -123.54741356 99.4802606 -114.71484375 90.73828125 C-101.92166478 79.81727481 -87.96130674 76.71166409 -71.59765625 76.7265625 C-69.21939629 76.70627852 -66.84114111 76.68542784 -64.46289062 76.6640625 C-60.75915455 76.64148323 -57.05560839 76.62498912 -53.35180664 76.61914062 C-49.74591819 76.60956641 -46.14085716 76.5757411 -42.53515625 76.5390625 C-40.89559715 76.54663071 -40.89559715 76.54663071 -39.22291565 76.55435181 C-28.44445948 76.41794384 -18.93486239 73.5163202 -11 66 C-2.88304811 57.43106007 -0.4052068 47.17209935 -0.390625 35.64453125 C-0.37408875 34.61688156 -0.35755249 33.58923187 -0.34051514 32.53044128 C-0.29244781 29.29106425 -0.27075619 26.05215514 -0.25 22.8125 C-0.22180582 20.59828427 -0.19187364 18.38408994 -0.16015625 16.16992188 C-0.08670071 10.78003175 -0.03481783 5.39027097 0 0 Z " fill="#A3657A" transform="translate(472,547)"/>
<path d="M0 0 C0.00142502 0.57692093 0.00285004 1.15384186 0.00431824 1.74824524 C0.0241385 7.80049037 0.07867319 13.85174358 0.15258789 19.90356445 C0.17566019 22.15642153 0.19013809 24.40938482 0.19555664 26.66235352 C0.20492499 29.91749447 0.24608881 33.17098935 0.29296875 36.42578125 C0.2890361 37.41894852 0.28510345 38.41211578 0.28105164 39.43537903 C0.48648376 49.47701314 4.1527285 57.89247551 11.0390625 65.21484375 C17.15452299 70.78210559 23.88834081 75.25575259 32.34667969 75.23950195 C33.39257263 75.24323318 34.43846558 75.24696442 35.51605225 75.25080872 C36.63997375 75.24667465 37.76389526 75.24254059 38.921875 75.23828125 C41.33464093 75.25371903 43.74740143 75.27002394 46.16015625 75.28710938 C49.93811074 75.30345043 53.71566598 75.31256493 57.49365234 75.30541992 C79.1166396 75.28974903 97.43244525 76.42472853 114.1875 91.5625 C121.49535103 99.27717985 128 110.2499884 128 121 C127.2575 120.835 126.515 120.67 125.75 120.5 C118.45527513 119.52737002 110.86215048 118.95015534 104 122 C103.84144531 121.41992188 103.68289063 120.83984375 103.51953125 120.2421875 C101.24956416 112.64218718 98.24748568 108.05732205 91.484375 103.86328125 C80.98529587 98.73259173 68.58700617 100.26549904 57.1875 100.375 C32.59545952 100.53977079 12.23077673 99.72371863 -6.5625 81.66796875 C-21.18761128 65.66003445 -23.34079045 47.96527502 -23.125 27.3125 C-23.11494678 25.62826055 -23.10582508 23.94401527 -23.09765625 22.25976562 C-23.07583596 18.17303063 -23.04143636 14.08658125 -23 10 C-21.99839844 9.61328125 -20.99679687 9.2265625 -19.96484375 8.828125 C-18.6222845 8.30236753 -17.27984284 7.77630973 -15.9375 7.25 C-15.28072266 6.99734375 -14.62394531 6.7446875 -13.94726562 6.484375 C-10.16006383 4.99188168 -3.71933632 0 0 0 Z " fill="#F89433" transform="translate(548,548)"/>
<path d="M0 0 C3.96 0 7.92 0 12 0 C16.66666667 9.33333333 21.33333333 18.66666667 26 28 C30.29 18.76 34.58 9.52 39 0 C43.29 0 47.58 0 52 0 C52 16.5 52 33 52 50 C48.37 50 44.74 50 41 50 C40.67 40.43 40.34 30.86 40 21 C36.75169006 27.86498421 36.75169006 27.86498421 33.50805664 34.73217773 C33.10449951 35.58239502 32.70094238 36.4326123 32.28515625 37.30859375 C31.66459351 38.62041626 31.66459351 38.62041626 31.03149414 39.95874023 C30 42 30 42 29 43 C26.69 43 24.38 43 22 43 C18.7 35.74 15.4 28.48 12 21 C11.67 30.57 11.34 40.14 11 50 C7.37 50 3.74 50 0 50 C0 33.5 0 17 0 0 Z " fill="#F1F5F8" transform="translate(324,712)"/>
<path d="M0 0 C2.58119835 1.84155672 3.92953545 3.43679741 5.00390625 6.4296875 C5.00390625 7.7496875 5.00390625 9.0696875 5.00390625 10.4296875 C1.99184841 11.02180143 -0.92081771 11.48289297 -3.99609375 11.4296875 C-6.37109375 9.5546875 -6.37109375 9.5546875 -7.99609375 7.4296875 C-10.64050014 6.5482187 -12.27670127 6.26793932 -14.99609375 6.2421875 C-16.01703125 6.22091797 -16.01703125 6.22091797 -17.05859375 6.19921875 C-19.32223507 6.32028339 -19.32223507 6.32028339 -21.99609375 8.4296875 C-22.24630945 11.51334621 -22.24630945 11.51334621 -21.99609375 14.4296875 C-21.32964844 14.59984375 -20.66320312 14.77 -19.9765625 14.9453125 C-0.30918673 20.11659452 -0.30918673 20.11659452 5.00390625 25.4296875 C6.98978422 29.40144343 6.54066185 34.11124475 6.00390625 38.4296875 C3.78981944 43.20142632 -0.27365287 45.4955256 -4.99609375 47.4296875 C-7.82118116 47.86426233 -10.57944627 47.89494667 -13.43359375 47.8671875 C-14.52124023 47.8971582 -14.52124023 47.8971582 -15.63085938 47.92773438 C-22.27991872 47.92176038 -26.60765242 45.81812883 -31.37109375 41.0546875 C-33.18664466 38.12187449 -33.67876252 35.84099827 -33.99609375 32.4296875 C-30.69609375 32.4296875 -27.39609375 32.4296875 -23.99609375 32.4296875 C-23.33609375 33.7496875 -22.67609375 35.0696875 -21.99609375 36.4296875 C-18.95670242 38.76768083 -15.72873861 38.77652693 -11.96875 38.69921875 C-9.16087247 38.31556816 -7.23661588 37.1100791 -4.99609375 35.4296875 C-4.94441848 33.00701664 -4.94441848 33.00701664 -5.99609375 30.4296875 C-9.77354922 28.3048688 -13.202142 27.3540432 -17.43359375 26.5546875 C-23.33718206 25.33360342 -27.98699838 22.68991979 -31.99609375 18.1796875 C-33.46322047 14.14508902 -33.87921665 10.65709548 -32.99609375 6.4296875 C-30.59169545 1.99604525 -26.92008663 -1.43763619 -22.1015625 -3.12890625 C-14.037085 -4.81960376 -7.17666484 -4.07791228 0 0 Z " fill="#FCFAF6" transform="translate(679.99609375,714.5703125)"/>
<path d="M0 0 C-0.6290625 0.24234375 -1.258125 0.4846875 -1.90625 0.734375 C-4.61598513 1.79541586 -7.30835226 2.89394935 -10 4 C-10.6909375 4.26554688 -11.381875 4.53109375 -12.09375 4.8046875 C-21.63571649 8.91086161 -28.24943379 17.95801057 -34.30859375 26.06640625 C-36 28 -36 28 -39 29 C-39.71322847 30.30901771 -40.37273489 31.64768321 -41 33 C-42.11531302 34.50231319 -43.26343066 35.98064406 -44.4375 37.4375 C-46.3449835 39.84053592 -48.0623366 42.1054927 -49.625 44.75 C-51.36971311 47.60498509 -53.57843446 49.7093299 -56 52 C-56.66 51.67 -57.32 51.34 -58 51 C-57.47792969 50.36835938 -56.95585938 49.73671875 -56.41796875 49.0859375 C-51.54469566 43.16290505 -46.7603099 37.18058804 -42.03149414 31.14208984 C-38.61039932 26.77373536 -35.17807292 22.41556076 -31.68359375 18.10546875 C-30.30297842 16.37889877 -28.9856772 14.60187938 -27.6875 12.8125 C-21.78853878 6.63916849 -9.01540375 -3.12150654 0 0 Z " fill="#2EB9E1" transform="translate(670,250)"/>
<path d="M0 0 C5.625 2.25 5.625 2.25 8 5 C5.69 4.34 3.38 3.68 1 3 C1.08378906 3.79277344 1.16757812 4.58554687 1.25390625 5.40234375 C2.35064205 17.96621586 1.6583232 30.42319063 1 43 C0.67 43 0.34 43 0 43 C0 28.81 0 14.62 0 0 Z " fill="#DF7253" transform="translate(472,547)"/>
<path d="M0 0 C0 1.98 0 3.96 0 6 C-0.66 5.01 -1.32 4.02 -2 3 C-7.38226281 9.47596588 -7.38226281 9.47596588 -12.1875 16.375 C-14.14244562 19.20630056 -16.22297854 20.99437339 -19 23 C-17.4141283 17.72412618 -14.01272872 13.97916965 -10.5625 9.8125 C-9.68368164 8.72678711 -9.68368164 8.72678711 -8.78710938 7.61914062 C-2.54295785 0 -2.54295785 0 0 0 Z " fill="#387AAE" transform="translate(560,371)"/>
<path d="M0 0 C0.33 0.66 0.66 1.32 1 2 C2.32 2 3.64 2 5 2 C5.33 2.99 5.66 3.98 6 5 C5.01 5.495 5.01 5.495 4 6 C4.41586354 10.2787981 4.41586354 10.2787981 6.5625 13.875 C7.036875 14.24625 7.51125 14.6175 8 15 C6.68 15 5.36 15 4 15 C0.75330368 11.48274565 -0.25 8.80390242 -0.25 4.125 C-0.18641991 2.74894513 -0.10985087 1.37313591 0 0 Z " fill="#403590" transform="translate(300,755)"/>
<path d="M0 0 C0 3.27763744 -0.60359014 5.06018976 -2 8 C-2.474375 8.45375 -2.94875 8.9075 -3.4375 9.375 C-5.84009644 11.87370029 -6.72831951 14.79052066 -8 18 C-9 15 -9 15 -7.890625 12.1875 C-7.34921875 11.135625 -6.8078125 10.08375 -6.25 9 C-5.71890625 7.948125 -5.1878125 6.89625 -4.640625 5.8125 C-3.25072832 3.42981997 -2.06233887 1.78901685 0 0 Z " fill="#5A5EAB" transform="translate(353,643)"/>
<path d="M0 0 C0 1.98 0 3.96 0 6 C-0.66 5.01 -1.32 4.02 -2 3 C-3.98 5.64 -5.96 8.28 -8 11 C-8.33 10.01 -8.66 9.02 -9 8 C-7.85546875 6.2109375 -7.85546875 6.2109375 -6.1875 4.375 C-5.64480469 3.76398438 -5.10210938 3.15296875 -4.54296875 2.5234375 C-1.98717949 0 -1.98717949 0 0 0 Z " fill="#2C71A6" transform="translate(560,371)"/>
<path d="M0 0 C0.66 0.33 1.32 0.66 2 1 C-0.64 3.64 -3.28 6.28 -6 9 C-6.33 8.01 -6.66 7.02 -7 6 C-4.69 4.02 -2.38 2.04 0 0 Z " fill="#7069A8" transform="translate(362,634)"/>
<path d="M0 0 C3.37503669 1.1858237 5.64722731 2.27573689 8 5 C5.69 4.34 3.38 3.68 1 3 C1 4.65 1 6.3 1 8 C0.67 8 0.34 8 0 8 C0 5.36 0 2.72 0 0 Z " fill="#EC7849" transform="translate(472,547)"/>
<path d="M0 0 C1.485 0.99 1.485 0.99 3 2 C5.27912938 2.45394552 5.27912938 2.45394552 7.6875 2.625 C8.49574219 2.69976563 9.30398438 2.77453125 10.13671875 2.8515625 C10.75160156 2.90054688 11.36648438 2.94953125 12 3 C12 3.33 12 3.66 12 4 C8.04 4 4.08 4 0 4 C0 2.68 0 1.36 0 0 Z " fill="#2F70AF" transform="translate(646,597)"/>
<path d="M0 0 C0.66 0.33 1.32 0.66 2 1 C0.35 2.98 -1.3 4.96 -3 7 C-3.66 6.34 -4.32 5.68 -5 5 C-3.35 3.35 -1.7 1.7 0 0 Z " fill="#3970B3" transform="translate(318,258)"/>
</svg>
