<?xml version="1.0" encoding="UTF-8"?>
<svg version="1.1" xmlns="http://www.w3.org/2000/svg" width="240" height="60" viewBox="0 0 800 200">
  <!-- Logo 图形部分 (缩放并左移) -->
  <g transform="translate(10, 20) scale(0.35)">
    <path d="M0 0 C5.61316478 4.389225 10.0063189 9.19641672 14.1875 14.9375 C15.31426715 16.44821239 16.443231 17.95728849 17.57421875 19.46484375 C18.4257251 20.60155518 18.4257251 20.60155518 19.29443359 21.76123047 C21.94667343 25.24262745 24.71873306 28.62142528 27.5 32 C31.92954133 37.39526115 36.22645172 42.87014618 40.4375 48.4375 C44.84564974 54.26372119 49.38505954 59.95034182 54.0625 65.5625 C59.08335043 71.58890177 63.86699416 77.73995074 68.52929688 84.04663086 C72.60604232 89.53710825 76.87700038 94.84758459 81.21069336 100.13647461 C86.1121397 106.11913315 90.89709168 112.18688949 95.65722656 118.28222656 C97.93233933 121.19271628 100.2166837 124.09594496 102.5 127 C103.41670978 128.16663279 104.33337648 129.33329944 105.25 130.5 C105.70375 131.0775 106.1575 131.655 106.625 132.25 C111.66666667 138.66666667 116.70833333 145.08333333 121.75 151.5 C122.2035083 152.07717773 122.6570166 152.65435547 123.12426758 153.24902344 C124.04343313 154.41890016 124.96254095 155.58882223 125.8815918 156.75878906 C128.13456094 159.62671157 130.38843723 162.4939099 132.64453125 165.359375 C133.53393027 166.48952344 134.42325246 167.61973236 135.3125 168.75 C135.75996582 169.3186377 136.20743164 169.88727539 136.66845703 170.47314453 C139.24043089 173.74615517 141.79984568 177.02845105 144.34765625 180.3203125 C145.21414795 181.43913818 145.21414795 181.43913818 146.09814453 182.58056641 C147.28334528 184.11100287 148.46791512 185.64192813 149.65185547 187.17333984 C153.11228683 191.63140721 156.64720638 196.01265859 160.25708008 200.3503418 C172.07226667 214.58589931 178.73234961 227.12101721 177 246 C175.04359087 256.14113338 168.90263958 264.54549366 160.5 270.4375 C150.82894515 276.35037291 140.56232497 278.48581522 129.34375 276.5390625 C113.54709407 272.28996201 105.01802366 260.89222639 95.72753906 248.3137207 C92.06912808 243.37140366 88.27515918 238.56590866 84.375 233.8125 C79.25386323 227.5662935 74.28726351 221.23068049 69.38671875 214.80908203 C66.63010143 211.2128612 63.84509939 207.63862915 61.0625 204.0625 C60.46477783 203.29413818 59.86705566 202.52577637 59.2512207 201.73413086 C55.59750965 197.04133203 51.92965983 192.35996873 48.25 187.6875 C44.45796126 182.87189798 40.70233709 178.03015636 36.97290039 173.16577148 C32.88101846 167.83286326 28.75027371 162.53041389 24.61206055 157.23339844 C18.3487659 149.19973666 12.18901276 141.09332438 6 133 C5.67 203.29 5.34 273.58 5 346 C-20.08 346 -45.16 346 -71 346 C-71.06615102 305.78628703 -71.12153789 265.57262543 -71.15319599 225.35887361 C-71.15694806 220.61001721 -71.16083103 215.86116092 -71.16479492 211.11230469 C-71.16558185 210.16690291 -71.16636878 209.22150113 -71.16717956 208.24745081 C-71.18022933 192.94468711 -71.20388082 177.64195726 -71.23145839 162.33921362 C-71.25952451 146.63425511 -71.27617882 130.9293143 -71.28226548 115.22433174 C-71.28637942 105.53548275 -71.29936757 95.84672945 -71.3237494 86.15790991 C-71.33962148 79.51165932 -71.34439702 72.86545812 -71.34050413 66.21918996 C-71.33858488 62.38608113 -71.34150292 58.55313938 -71.35761642 54.72006035 C-71.37498059 50.55896192 -71.36894917 46.3982176 -71.36076355 42.23709106 C-71.37387134 40.43063777 -71.37387134 40.43063777 -71.38724393 38.58769047 C-71.3191122 25.76528824 -67.59347033 14.29143947 -58.83984375 4.69140625 C-42.37264663 -10.4472272 -18.68008314 -12.26238587 0 0 Z " fill="#3666AC" transform="translate(74,8)"/>
    <path d="M0 0 C10.16969209 8.47219462 15.09533125 18.31680002 17.53515625 31.1640625 C17.92179151 35.62528499 17.92887575 40.05193055 17.8959198 44.527771 C17.89848307 45.82025954 17.90104635 47.11274807 17.9036873 48.44440293 C17.91033683 51.99748846 17.89847696 55.55029828 17.88335311 59.10334873 C17.8703162 62.94775382 17.87478759 66.79214517 17.87705994 70.63656616 C17.87862786 77.28586213 17.86926915 83.93506932 17.85234642 90.58434296 C17.82789549 100.19789018 17.82014494 109.81139476 17.81638245 119.4249697 C17.80982749 135.02487388 17.78989235 150.62473082 17.76147461 166.22460938 C17.73390924 181.37239344 17.7126878 196.52016464 17.69995117 211.66796875 C17.69876892 213.07011464 17.69876892 213.07011464 17.69756278 214.50058672 C17.69364747 219.1903374 17.68985639 223.88008817 17.68612707 228.569839 C17.65506094 267.43462213 17.59977397 306.29931783 17.53515625 345.1640625 C-7.54484375 345.1640625 -32.62484375 345.1640625 -58.46484375 345.1640625 C-58.79484375 274.5440625 -59.12484375 203.9240625 -59.46484375 131.1640625 C-66.68122641 140.50898013 -66.68122641 140.50898013 -73.46484375 150.1640625 C-74.12484375 150.1640625 -74.78484375 150.1640625 -75.46484375 150.1640625 C-75.73167969 150.7415625 -75.99851562 151.3190625 -76.2734375 151.9140625 C-77.5024055 154.2349988 -78.88645679 156.11586317 -80.52734375 158.1640625 C-83.3142781 161.68651767 -86.03448167 165.24726951 -88.71484375 168.8515625 C-93.39444412 175.10953655 -98.21281145 181.25133193 -103.05761719 187.38183594 C-104.90785019 189.72512201 -106.75242397 192.07281997 -108.59594727 194.42138672 C-109.50414064 195.57756369 -110.4134728 196.7328471 -111.32397461 197.88720703 C-113.72682132 200.93583224 -116.10757352 203.99890906 -118.4609375 207.0859375 C-118.95335937 207.72660156 -119.44578125 208.36726562 -119.953125 209.02734375 C-120.89558981 210.25432623 -121.83213683 211.4858849 -122.76171875 212.72265625 C-125.04727856 215.68490748 -126.89287575 217.87119241 -130.46484375 219.1640625 C-131.04878906 217.56691406 -131.04878906 217.56691406 -131.64453125 215.9375 C-135.62708637 205.44986172 -140.54760753 196.95191811 -147.46484375 188.1640625 C-148.34194946 187.02535814 -149.21824872 185.88603215 -150.09375 184.74609375 C-153.95325112 179.75634546 -157.89894073 174.84118826 -161.91015625 169.97265625 C-162.78160278 168.91183838 -162.78160278 168.91183838 -163.6706543 167.82958984 C-164.79208579 166.4676822 -165.91826211 165.10966205 -167.05004883 163.75634766 C-170.35268517 159.75037685 -173.01271156 155.74334551 -175.46484375 151.1640625 C-175.09311035 150.68686768 -174.72137695 150.20967285 -174.33837891 149.71801758 C-165.27917041 138.08824 -165.27917041 138.08824 -156.27734375 126.4140625 C-152.50161759 121.4964094 -148.68605987 116.61239268 -144.84863281 111.74291992 C-141.05196891 106.92179086 -137.28819138 102.07565759 -133.52734375 97.2265625 C-128.71892565 91.02910389 -123.85159458 84.8844968 -118.93164062 78.77539062 C-115.22010448 74.14948928 -111.61247432 69.4508584 -108.02734375 64.7265625 C-103.18493095 58.34760092 -98.20631511 52.09982848 -93.13134766 45.90478516 C-89.81907259 41.85399617 -86.57486702 37.76261634 -83.40234375 33.6015625 C-63.34623274 7.33916307 -35.51120247 -26.45049946 0 0 Z " fill="#2C97CC" transform="translate(404.46484375,8.8359375)"/>
    <path d="M0 0 C0.33 0 0.66 0 1 0 C1.23074219 0.96679688 1.46148437 1.93359375 1.69921875 2.9296875 C6.48458216 22.33616127 17.22536283 35.32061252 30.69140625 49.59863281 C32.95894262 52.02692736 35.12639731 54.53944677 37.30078125 57.05078125 C40.81406038 61.08095661 44.41746334 65.03146612 48 69 C49.50028679 70.66640851 51.00028872 72.33307353 52.5 74 C54.76085598 76.51249908 57.02216012 79.02458448 59.28515625 81.53515625 C60.03667969 82.36917969 60.78820312 83.20320313 61.5625 84.0625 C62.22378906 84.79597656 62.88507813 85.52945313 63.56640625 86.28515625 C64.36949219 87.18105469 65.17257813 88.07695313 66 89 C66.64538979 89.49422172 67.29077957 89.98844343 67.95572662 90.49764156 C71.88841086 93.92224208 74.10883519 97.08540207 74.72842407 102.28634834 C75.09338284 107.83599848 74.99023943 113.38417599 74.90820312 118.94165039 C74.90594479 121.08088089 74.90721661 123.22011758 74.91174316 125.35934448 C74.91403403 131.15049597 74.86707416 136.94031588 74.8111515 142.73115849 C74.76106543 148.78891918 74.75643569 154.84671203 74.74694824 160.90464783 C74.72210547 172.36879043 74.65648587 183.83232109 74.57615232 195.29619449 C74.486664 208.35048177 74.44272969 221.40479861 74.40258884 234.45931637 C74.31901816 261.3066281 74.17233557 288.1531012 74 315 C49.58 315 25.16 315 0 315 C0 211.05 0 107.1 0 0 Z " fill="#3B3E8F" transform="translate(4,38)"/>
  </g>

  <!-- MSM 文字 (圆润字体) -->
  <text x="180" y="125"
        font-family="'Rounded Mplus 1c', 'Varela Round', 'Nunito', 'Comfortaa', 'Quicksand', -apple-system, BlinkMacSystemFont, 'Segoe UI', sans-serif"
        font-size="90"
        font-weight="700"
        fill="#3666AC"
        letter-spacing="2">MSM</text>

  <!-- 副标题 (可选,更小更轻) -->
  <text x="180" y="165"
        font-family="'Rounded Mplus 1c', 'Varela Round', 'Nunito', 'Comfortaa', 'Quicksand', -apple-system, BlinkMacSystemFont, 'Segoe UI', sans-serif"
        font-size="24"
        font-weight="500"
        fill="#2C97CC"
        letter-spacing="1">Manager</text>
</svg>
